# xmcd
#
# Track frame offsets: 
#        150
#        15270
#        37051
#        71937
#        88633
#        105394
#        127655
#        148757
#        171232
#        190848
#
# Disc length: 2810 seconds
#
# Revision: 0
# Processed by: cddbd v1.5.2PL0 Copyright (c) Steve Scherf et al.
# Submitted via: ExactAudioCopy v1.0b3
#
DISCID=810af80a
DTITLE=Khanh Ly - Mot Som Mai Ve
DYEAR=2001
DGENRE=
TTITLE0=Loi vo ve cho ngay sau muon
TTITLE1=Bai huong ca vo tan
TTITLE2=Tong biet hanh
TTITLE3=Bai nha ca thu nhat
TTITLE4=Em co con tro lai
TTITLE5=Mot som mai ve
TTITLE6=Ben ky niem
TTITLE7=Loi ta tu
TTITLE8=May ha
TTITLE9=Nghin dem nhu mot
EXTD=
EXTT0=
EXTT1=
EXTT2=
EXTT3=
EXTT4=
EXTT5=
EXTT6=
EXTT7=
EXTT8=
EXTT9=
PLAYORDER=
